<svg xmlns="http://www.w3.org/2000/svg" xmlns:xlink="http://www.w3.org/1999/xlink" width="500" zoomAndPan="magnify" viewBox="0 0 375 374.999991" height="500" preserveAspectRatio="xMidYMid meet" version="1.0"><defs><g/><clipPath id="3c763ea767"><path d="M 160 92.484375 L 215 92.484375 L 215 169 L 160 169 Z M 160 92.484375 " clip-rule="nonzero"/></clipPath><clipPath id="506f7ca839"><path d="M 90.222656 101 L 284 101 L 284 186 L 90.222656 186 Z M 90.222656 101 " clip-rule="nonzero"/></clipPath></defs><g clip-path="url(#3c763ea767)"><path fill="#100f0d" d="M 212.960938 154.144531 C 212.804688 154.5 212.632812 154.855469 212.453125 155.203125 C 211.113281 157.808594 209.03125 160.433594 205.890625 162.855469 C 203.925781 164.375 201.777344 165.617188 199.515625 166.570312 C 203.734375 162.699219 203.792969 157.226562 203.792969 157.226562 C 203.792969 157.226562 202.890625 161.511719 200.441406 161.480469 C 197.988281 161.445312 199.433594 159.28125 199.433594 159.28125 C 207.148438 150.667969 200.179688 144.839844 200.039062 144.726562 C 202.660156 149.054688 200.738281 154.199219 197.003906 153.328125 C 193.269531 152.460938 194.808594 145.914062 194.898438 139.644531 C 194.992188 133.375 190.660156 131.296875 190.660156 131.296875 C 192.144531 133.828125 191.867188 136.609375 191.328125 138.574219 C 190.917969 140.078125 188.953125 140.492188 188.015625 139.246094 C 186.078125 136.675781 186.335938 132.914062 187.953125 129.257812 C 190.003906 124.632812 188.425781 121.414062 188.355469 121.277344 C 188.378906 121.417969 188.828125 124.453125 183.839844 128.011719 C 178.730469 131.660156 179.003906 137.746094 180.328125 140.625 C 181.652344 143.503906 181.058594 150.511719 175.871094 148.183594 C 170.777344 145.902344 173.96875 138.214844 174.085938 137.941406 C 163.664062 157.914062 171.894531 165.566406 178.679688 168.464844 C 171.207031 167.003906 155.253906 160.4375 162.859375 130.945312 C 162.859375 130.945312 163.019531 140.386719 168.3125 141.507812 C 173.605469 142.628906 163.074219 116.382812 174.515625 111.578125 C 174.429688 111.730469 170.183594 119.609375 175.476562 122.671875 C 180.824219 125.769531 174.410156 102.082031 189.269531 92.476562 C 189.125 92.6875 182.804688 101.925781 187.667969 107.414062 C 192.585938 112.964844 193.867188 114.988281 196.433594 121.820312 C 199 128.652344 200.390625 121.710938 199.640625 117.445312 C 198.90625 113.238281 202.425781 109.027344 202.527344 108.910156 C 202.460938 109.132812 200.050781 117.222656 206.484375 124.273438 C 207.921875 125.847656 208.761719 127.808594 208.6875 129.953125 C 208.621094 131.941406 207.898438 133.847656 207.152344 135.667969 C 206.347656 137.625 205.410156 139.566406 205.066406 141.675781 C 204.808594 143.242188 204.769531 145.546875 206.191406 146.617188 C 207.324219 147.464844 208.804688 147.167969 209.902344 146.417969 C 211.25 145.5 212.160156 144.03125 212.625 142.46875 C 213.089844 140.90625 213.136719 139.246094 213.015625 137.621094 C 215.144531 142.84375 215.253906 148.957031 212.960938 154.144531 " fill-opacity="1" fill-rule="nonzero"/></g><g clip-path="url(#506f7ca839)"><path fill="#100f0d" d="M 232.210938 138.953125 C 230.941406 138.289062 230.5 136.609375 231.191406 135.152344 L 241.542969 113.535156 C 241.644531 113.332031 241.757812 113.128906 241.890625 112.941406 C 243.003906 111.292969 245.042969 110.621094 246.65625 111.46875 C 248.457031 112.414062 249.003906 114.855469 247.859375 116.839844 L 235.917969 137.625 C 235.113281 139.027344 233.476562 139.613281 232.210938 138.953125 Z M 254.414062 121.683594 C 255.632812 119.742188 258.046875 119.0625 259.730469 120.203125 C 261.363281 121.3125 261.65625 123.707031 260.410156 125.542969 C 260.378906 125.585938 260.347656 125.636719 260.3125 125.679688 L 246.09375 144.984375 C 245.132812 146.292969 243.445312 146.6875 242.261719 145.882812 C 241.078125 145.078125 240.820312 143.363281 241.675781 141.992188 Z M 272.6875 129.109375 C 274.066406 130.289062 274.191406 132.433594 273.078125 134.074219 C 272.949219 134.261719 272.808594 134.441406 272.644531 134.617188 L 256.335938 152.191406 C 255.234375 153.375 253.507812 153.578125 252.421875 152.648438 C 251.335938 151.71875 251.273438 149.984375 252.28125 148.722656 L 267.238281 129.976562 C 268.671875 128.1875 271.144531 127.789062 272.6875 129.109375 Z M 250.066406 160.988281 C 255.6875 161.871094 261.339844 159.660156 264.859375 155.203125 L 281.542969 134.117188 C 284.371094 130.554688 283.566406 125.347656 279.800781 122.796875 L 249.917969 102.542969 C 246.152344 99.992188 241.003906 101.167969 238.726562 105.101562 L 225.242188 128.355469 C 222.398438 133.269531 222.421875 139.328125 225.304688 144.210938 L 232.539062 156.449219 L 215.914062 180.878906 L 156.730469 180.878906 L 148.609375 170.074219 C 147.566406 168.691406 146.839844 167.101562 146.484375 165.417969 L 145.867188 162.464844 C 145.695312 161.683594 145.597656 160.898438 145.550781 160.109375 C 145.414062 157.640625 145.851562 155.167969 146.777344 152.84375 C 147.257812 151.648438 147.464844 150.359375 147.394531 149.074219 C 147.300781 147.394531 146.722656 145.71875 145.632812 144.269531 L 107.332031 101.195312 L 109.578125 107.933594 L 131.679688 137.375 C 132.679688 138.714844 133.207031 140.246094 133.289062 141.792969 C 133.441406 144.40625 132.316406 147.03125 130.0625 148.742188 C 126.359375 151.535156 120.972656 150.683594 118.203125 146.980469 L 96.203125 117.671875 L 90.320312 113.574219 L 120.882812 162.273438 C 122.796875 164.824219 125.824219 166.078125 128.816406 165.878906 C 132.136719 165.652344 135.457031 166.28125 138.375 167.863281 L 141.277344 169.441406 C 142.808594 170.269531 144.136719 171.417969 145.171875 172.800781 L 151.246094 180.878906 L 99.132812 180.878906 L 99.132812 185.589844 L 274.417969 185.589844 L 274.417969 180.878906 L 220.980469 180.878906 L 236.007812 158.796875 L 250.066406 160.988281 " fill-opacity="1" fill-rule="nonzero"/></g><path fill="#100f0d" d="M 187.796875 222.207031 L 186.804688 220.886719 L 188.699219 220.886719 Z M 221.257812 270.445312 C 223.292969 268.972656 226.148438 269.398438 227.648438 271.390625 C 228.195312 272.121094 228.484375 272.964844 228.535156 273.8125 C 228.617188 275.269531 227.96875 276.746094 226.691406 277.683594 C 224.660156 279.160156 221.800781 278.730469 220.300781 276.734375 C 219.753906 276.003906 219.457031 275.164062 219.414062 274.316406 C 219.332031 272.859375 219.972656 271.382812 221.257812 270.445312 Z M 158.46875 276.753906 C 157.121094 278.738281 154.417969 279.253906 152.4375 277.910156 C 150.453125 276.566406 149.9375 273.863281 151.285156 271.882812 C 152.632812 269.90625 155.332031 269.390625 157.316406 270.734375 C 159.296875 272.078125 159.8125 274.773438 158.46875 276.753906 Z M 191.902344 216.175781 L 99.132812 216.175781 L 99.132812 220.886719 L 181.328125 220.886719 L 183.421875 223.675781 L 185.191406 226.03125 L 180.886719 232.367188 C 179.082031 232.089844 177.191406 232.835938 176.101562 234.445312 L 149.347656 270.207031 C 146.992188 273.355469 147.75 277.816406 150.996094 280.019531 C 154.25 282.226562 158.6875 281.277344 160.746094 277.933594 L 184.183594 239.921875 C 184.941406 238.808594 185.179688 237.492188 184.941406 236.265625 C 184.839844 235.726562 184.636719 235.199219 184.355469 234.714844 L 187.851562 229.574219 L 191.34375 234.230469 C 191.066406 234.738281 190.875 235.292969 190.789062 235.859375 C 190.738281 236.203125 190.71875 236.550781 190.738281 236.894531 C 190.792969 237.84375 191.121094 238.792969 191.738281 239.613281 L 217.960938 278.046875 C 220.265625 281.425781 224.964844 282.230469 228.289062 279.8125 C 230.335938 278.324219 231.347656 275.984375 231.214844 273.667969 C 231.132812 272.222656 230.609375 270.785156 229.609375 269.574219 L 200.003906 233.601562 C 198.78125 231.980469 196.769531 231.289062 194.886719 231.648438 L 190.453125 225.75 L 193.765625 220.886719 L 274.417969 220.886719 L 274.417969 216.175781 L 191.902344 216.175781 " fill-opacity="1" fill-rule="nonzero"/><g fill="#000000" fill-opacity="1"><g transform="translate(142.709794, 193.32091)"><g><path d="M 5.984375 -2.90625 C 5.984375 -2.488281 5.910156 -2.097656 5.765625 -1.734375 C 5.628906 -1.378906 5.429688 -1.0625 5.171875 -0.78125 C 4.921875 -0.507812 4.625 -0.296875 4.28125 -0.140625 C 3.9375 0.00390625 3.5625 0.078125 3.15625 0.078125 C 2.738281 0.078125 2.359375 0.00390625 2.015625 -0.140625 C 1.671875 -0.296875 1.375 -0.507812 1.125 -0.78125 C 0.875 -1.0625 0.675781 -1.378906 0.53125 -1.734375 C 0.394531 -2.097656 0.328125 -2.488281 0.328125 -2.90625 C 0.328125 -3.320312 0.394531 -3.707031 0.53125 -4.0625 C 0.675781 -4.425781 0.875 -4.742188 1.125 -5.015625 C 1.375 -5.296875 1.671875 -5.515625 2.015625 -5.671875 C 2.359375 -5.828125 2.738281 -5.90625 3.15625 -5.90625 C 3.5625 -5.90625 3.9375 -5.828125 4.28125 -5.671875 C 4.625 -5.515625 4.921875 -5.296875 5.171875 -5.015625 C 5.429688 -4.742188 5.628906 -4.425781 5.765625 -4.0625 C 5.910156 -3.707031 5.984375 -3.320312 5.984375 -2.90625 Z M 4.890625 -2.90625 C 4.890625 -3.28125 4.816406 -3.617188 4.671875 -3.921875 C 4.523438 -4.222656 4.320312 -4.460938 4.0625 -4.640625 C 3.800781 -4.816406 3.5 -4.90625 3.15625 -4.90625 C 2.8125 -4.90625 2.507812 -4.816406 2.25 -4.640625 C 1.988281 -4.460938 1.78125 -4.222656 1.625 -3.921875 C 1.476562 -3.617188 1.40625 -3.28125 1.40625 -2.90625 C 1.40625 -2.539062 1.476562 -2.207031 1.625 -1.90625 C 1.78125 -1.601562 1.988281 -1.363281 2.25 -1.1875 C 2.507812 -1.007812 2.8125 -0.921875 3.15625 -0.921875 C 3.5 -0.921875 3.800781 -1.007812 4.0625 -1.1875 C 4.320312 -1.363281 4.523438 -1.601562 4.671875 -1.90625 C 4.816406 -2.207031 4.890625 -2.539062 4.890625 -2.90625 Z M 4.890625 -2.90625 "/></g></g></g><g fill="#000000" fill-opacity="1"><g transform="translate(155.676544, 193.32091)"><g><path d="M 1.21875 0 C 1.0625 0 0.921875 -0.046875 0.796875 -0.140625 C 0.679688 -0.242188 0.625 -0.363281 0.625 -0.5 L 0.625 -5.3125 C 0.625 -5.457031 0.671875 -5.578125 0.765625 -5.671875 C 0.867188 -5.765625 0.988281 -5.8125 1.125 -5.8125 L 3.53125 -5.8125 C 3.8125 -5.8125 4.078125 -5.734375 4.328125 -5.578125 C 4.585938 -5.429688 4.789062 -5.222656 4.9375 -4.953125 C 5.09375 -4.691406 5.171875 -4.382812 5.171875 -4.03125 C 5.171875 -3.820312 5.128906 -3.613281 5.046875 -3.40625 C 4.960938 -3.207031 4.847656 -3.03125 4.703125 -2.875 C 4.554688 -2.71875 4.390625 -2.59375 4.203125 -2.5 L 4.21875 -2.6875 C 4.375 -2.601562 4.5 -2.503906 4.59375 -2.390625 C 4.695312 -2.285156 4.773438 -2.164062 4.828125 -2.03125 C 4.890625 -1.90625 4.929688 -1.765625 4.953125 -1.609375 C 4.972656 -1.472656 4.984375 -1.351562 4.984375 -1.25 C 4.992188 -1.144531 5.007812 -1.054688 5.03125 -0.984375 C 5.0625 -0.910156 5.113281 -0.851562 5.1875 -0.8125 C 5.3125 -0.738281 5.390625 -0.632812 5.421875 -0.5 C 5.453125 -0.363281 5.414062 -0.242188 5.3125 -0.140625 C 5.257812 -0.0664062 5.1875 -0.0195312 5.09375 0 C 5 0.0195312 4.898438 0.0195312 4.796875 0 C 4.703125 -0.0195312 4.628906 -0.046875 4.578125 -0.078125 C 4.484375 -0.140625 4.382812 -0.222656 4.28125 -0.328125 C 4.1875 -0.429688 4.109375 -0.570312 4.046875 -0.75 C 3.992188 -0.9375 3.96875 -1.175781 3.96875 -1.46875 C 3.96875 -1.5625 3.953125 -1.648438 3.921875 -1.734375 C 3.890625 -1.816406 3.84375 -1.882812 3.78125 -1.9375 C 3.71875 -2 3.640625 -2.046875 3.546875 -2.078125 C 3.453125 -2.109375 3.34375 -2.125 3.21875 -2.125 L 1.53125 -2.125 L 1.65625 -2.3125 L 1.65625 -0.5 C 1.65625 -0.363281 1.617188 -0.242188 1.546875 -0.140625 C 1.472656 -0.046875 1.363281 0 1.21875 0 Z M 1.546875 -2.96875 L 3.484375 -2.96875 C 3.578125 -2.96875 3.671875 -3.015625 3.765625 -3.109375 C 3.867188 -3.203125 3.945312 -3.328125 4 -3.484375 C 4.0625 -3.640625 4.09375 -3.8125 4.09375 -4 C 4.09375 -4.25 4.023438 -4.453125 3.890625 -4.609375 C 3.765625 -4.773438 3.628906 -4.859375 3.484375 -4.859375 L 1.5625 -4.859375 L 1.65625 -5.125 L 1.65625 -2.78125 Z M 1.546875 -2.96875 "/></g></g></g><g fill="#000000" fill-opacity="1"><g transform="translate(168.044448, 193.32091)"><g><path d="M 3.359375 0.078125 C 2.941406 0.078125 2.550781 0.00390625 2.1875 -0.140625 C 1.820312 -0.296875 1.5 -0.507812 1.21875 -0.78125 C 0.945312 -1.0625 0.726562 -1.378906 0.5625 -1.734375 C 0.40625 -2.097656 0.328125 -2.488281 0.328125 -2.90625 C 0.328125 -3.320312 0.40625 -3.707031 0.5625 -4.0625 C 0.726562 -4.425781 0.945312 -4.742188 1.21875 -5.015625 C 1.5 -5.296875 1.820312 -5.515625 2.1875 -5.671875 C 2.550781 -5.828125 2.941406 -5.90625 3.359375 -5.90625 C 3.617188 -5.90625 3.867188 -5.875 4.109375 -5.8125 C 4.359375 -5.757812 4.585938 -5.675781 4.796875 -5.5625 C 4.878906 -5.519531 4.941406 -5.460938 4.984375 -5.390625 C 5.023438 -5.316406 5.046875 -5.238281 5.046875 -5.15625 C 5.046875 -5.03125 5 -4.910156 4.90625 -4.796875 C 4.820312 -4.691406 4.710938 -4.640625 4.578125 -4.640625 C 4.523438 -4.640625 4.472656 -4.644531 4.421875 -4.65625 C 4.378906 -4.675781 4.335938 -4.695312 4.296875 -4.71875 C 4.160156 -4.769531 4.015625 -4.8125 3.859375 -4.84375 C 3.703125 -4.882812 3.535156 -4.90625 3.359375 -4.90625 C 3.003906 -4.90625 2.675781 -4.8125 2.375 -4.625 C 2.082031 -4.445312 1.847656 -4.207031 1.671875 -3.90625 C 1.492188 -3.601562 1.40625 -3.269531 1.40625 -2.90625 C 1.40625 -2.550781 1.492188 -2.21875 1.671875 -1.90625 C 1.847656 -1.601562 2.082031 -1.363281 2.375 -1.1875 C 2.675781 -1.007812 3.003906 -0.921875 3.359375 -0.921875 C 3.523438 -0.921875 3.707031 -0.9375 3.90625 -0.96875 C 4.113281 -1 4.28125 -1.039062 4.40625 -1.09375 L 4.328125 -0.84375 L 4.328125 -2.265625 L 4.46875 -2.140625 L 3.546875 -2.140625 C 3.398438 -2.140625 3.28125 -2.1875 3.1875 -2.28125 C 3.09375 -2.375 3.046875 -2.492188 3.046875 -2.640625 C 3.046875 -2.785156 3.09375 -2.90625 3.1875 -3 C 3.28125 -3.09375 3.398438 -3.140625 3.546875 -3.140625 L 4.90625 -3.140625 C 5.050781 -3.140625 5.171875 -3.085938 5.265625 -2.984375 C 5.359375 -2.890625 5.40625 -2.773438 5.40625 -2.640625 L 5.40625 -0.875 C 5.40625 -0.757812 5.378906 -0.664062 5.328125 -0.59375 C 5.273438 -0.519531 5.21875 -0.460938 5.15625 -0.421875 C 4.894531 -0.265625 4.613281 -0.140625 4.3125 -0.046875 C 4.007812 0.0351562 3.691406 0.078125 3.359375 0.078125 Z M 3.359375 0.078125 "/></g></g></g><g fill="#000000" fill-opacity="1"><g transform="translate(180.48721, 193.32091)"><g><path d="M 4.75 -5.828125 C 4.894531 -5.828125 5.007812 -5.773438 5.09375 -5.671875 C 5.1875 -5.578125 5.234375 -5.457031 5.234375 -5.3125 L 5.234375 -2.3125 C 5.234375 -1.851562 5.132812 -1.445312 4.9375 -1.09375 C 4.738281 -0.738281 4.46875 -0.457031 4.125 -0.25 C 3.78125 -0.0507812 3.382812 0.046875 2.9375 0.046875 C 2.476562 0.046875 2.078125 -0.0507812 1.734375 -0.25 C 1.390625 -0.457031 1.117188 -0.738281 0.921875 -1.09375 C 0.722656 -1.445312 0.625 -1.851562 0.625 -2.3125 L 0.625 -5.3125 C 0.625 -5.457031 0.671875 -5.578125 0.765625 -5.671875 C 0.867188 -5.773438 1 -5.828125 1.15625 -5.828125 C 1.28125 -5.828125 1.394531 -5.773438 1.5 -5.671875 C 1.601562 -5.578125 1.65625 -5.457031 1.65625 -5.3125 L 1.65625 -2.3125 C 1.65625 -2.03125 1.710938 -1.785156 1.828125 -1.578125 C 1.953125 -1.378906 2.113281 -1.222656 2.3125 -1.109375 C 2.507812 -1.003906 2.71875 -0.953125 2.9375 -0.953125 C 3.175781 -0.953125 3.394531 -1.003906 3.59375 -1.109375 C 3.800781 -1.222656 3.96875 -1.378906 4.09375 -1.578125 C 4.226562 -1.785156 4.296875 -2.03125 4.296875 -2.3125 L 4.296875 -5.3125 C 4.296875 -5.457031 4.332031 -5.578125 4.40625 -5.671875 C 4.488281 -5.773438 4.601562 -5.828125 4.75 -5.828125 Z M 4.75 -5.828125 "/></g></g></g><g fill="#000000" fill-opacity="1"><g transform="translate(193.004816, 193.32091)"><g><path d="M 3.828125 -0.96875 C 3.972656 -0.96875 4.09375 -0.921875 4.1875 -0.828125 C 4.289062 -0.742188 4.34375 -0.628906 4.34375 -0.484375 C 4.34375 -0.347656 4.289062 -0.234375 4.1875 -0.140625 C 4.09375 -0.046875 3.972656 0 3.828125 0 L 1.125 0 C 0.988281 0 0.867188 -0.046875 0.765625 -0.140625 C 0.671875 -0.242188 0.625 -0.363281 0.625 -0.5 L 0.625 -5.3125 C 0.625 -5.457031 0.671875 -5.578125 0.765625 -5.671875 C 0.867188 -5.765625 1 -5.8125 1.15625 -5.8125 C 1.289062 -5.8125 1.40625 -5.765625 1.5 -5.671875 C 1.601562 -5.578125 1.65625 -5.457031 1.65625 -5.3125 L 1.65625 -0.828125 L 1.484375 -0.96875 Z M 3.828125 -0.96875 "/></g></g></g><g fill="#000000" fill-opacity="1"><g transform="translate(204.333042, 193.32091)"><g><path d="M 1.15625 -5.8125 C 1.289062 -5.8125 1.40625 -5.765625 1.5 -5.671875 C 1.601562 -5.578125 1.65625 -5.457031 1.65625 -5.3125 L 1.65625 -0.5 C 1.65625 -0.363281 1.601562 -0.242188 1.5 -0.140625 C 1.394531 -0.046875 1.273438 0 1.140625 0 C 0.984375 0 0.859375 -0.046875 0.765625 -0.140625 C 0.671875 -0.242188 0.625 -0.363281 0.625 -0.5 L 0.625 -5.3125 C 0.625 -5.457031 0.671875 -5.578125 0.765625 -5.671875 C 0.867188 -5.765625 1 -5.8125 1.15625 -5.8125 Z M 4.84375 -5.8125 C 5 -5.8125 5.125 -5.765625 5.21875 -5.671875 C 5.3125 -5.578125 5.359375 -5.457031 5.359375 -5.3125 L 5.359375 -0.5 C 5.359375 -0.363281 5.304688 -0.242188 5.203125 -0.140625 C 5.109375 -0.046875 4.984375 0 4.828125 0 C 4.691406 0 4.570312 -0.046875 4.46875 -0.140625 C 4.363281 -0.242188 4.3125 -0.363281 4.3125 -0.5 L 4.3125 -5.3125 C 4.3125 -5.457031 4.363281 -5.578125 4.46875 -5.671875 C 4.570312 -5.765625 4.695312 -5.8125 4.84375 -5.8125 Z M 1.125 -3.40625 L 4.84375 -3.40625 L 4.84375 -2.4375 L 1.125 -2.4375 Z M 1.125 -3.40625 "/></g></g></g><g fill="#000000" fill-opacity="1"><g transform="translate(216.967101, 193.32091)"><g><path d="M 5.984375 -2.90625 C 5.984375 -2.488281 5.910156 -2.097656 5.765625 -1.734375 C 5.628906 -1.378906 5.429688 -1.0625 5.171875 -0.78125 C 4.921875 -0.507812 4.625 -0.296875 4.28125 -0.140625 C 3.9375 0.00390625 3.5625 0.078125 3.15625 0.078125 C 2.738281 0.078125 2.359375 0.00390625 2.015625 -0.140625 C 1.671875 -0.296875 1.375 -0.507812 1.125 -0.78125 C 0.875 -1.0625 0.675781 -1.378906 0.53125 -1.734375 C 0.394531 -2.097656 0.328125 -2.488281 0.328125 -2.90625 C 0.328125 -3.320312 0.394531 -3.707031 0.53125 -4.0625 C 0.675781 -4.425781 0.875 -4.742188 1.125 -5.015625 C 1.375 -5.296875 1.671875 -5.515625 2.015625 -5.671875 C 2.359375 -5.828125 2.738281 -5.90625 3.15625 -5.90625 C 3.5625 -5.90625 3.9375 -5.828125 4.28125 -5.671875 C 4.625 -5.515625 4.921875 -5.296875 5.171875 -5.015625 C 5.429688 -4.742188 5.628906 -4.425781 5.765625 -4.0625 C 5.910156 -3.707031 5.984375 -3.320312 5.984375 -2.90625 Z M 4.890625 -2.90625 C 4.890625 -3.28125 4.816406 -3.617188 4.671875 -3.921875 C 4.523438 -4.222656 4.320312 -4.460938 4.0625 -4.640625 C 3.800781 -4.816406 3.5 -4.90625 3.15625 -4.90625 C 2.8125 -4.90625 2.507812 -4.816406 2.25 -4.640625 C 1.988281 -4.460938 1.78125 -4.222656 1.625 -3.921875 C 1.476562 -3.617188 1.40625 -3.28125 1.40625 -2.90625 C 1.40625 -2.539062 1.476562 -2.207031 1.625 -1.90625 C 1.78125 -1.601562 1.988281 -1.363281 2.25 -1.1875 C 2.507812 -1.007812 2.8125 -0.921875 3.15625 -0.921875 C 3.5 -0.921875 3.800781 -1.007812 4.0625 -1.1875 C 4.320312 -1.363281 4.523438 -1.601562 4.671875 -1.90625 C 4.816406 -2.207031 4.890625 -2.539062 4.890625 -2.90625 Z M 4.890625 -2.90625 "/></g></g></g><g fill="#000000" fill-opacity="1"><g transform="translate(229.944215, 193.32091)"><g/></g></g><g fill="#000000" fill-opacity="1"><g transform="translate(174.040542, 203.717563)"><g><path d="M 3.109375 -5.8125 C 3.515625 -5.8125 3.867188 -5.738281 4.171875 -5.59375 C 4.484375 -5.445312 4.742188 -5.238281 4.953125 -4.96875 C 5.171875 -4.695312 5.332031 -4.382812 5.4375 -4.03125 C 5.550781 -3.6875 5.609375 -3.3125 5.609375 -2.90625 C 5.609375 -2.375 5.507812 -1.882812 5.3125 -1.4375 C 5.125 -1 4.84375 -0.648438 4.46875 -0.390625 C 4.101562 -0.128906 3.648438 0 3.109375 0 L 1.125 0 C 0.988281 0 0.867188 -0.046875 0.765625 -0.140625 C 0.671875 -0.242188 0.625 -0.363281 0.625 -0.5 L 0.625 -5.3125 C 0.625 -5.457031 0.671875 -5.578125 0.765625 -5.671875 C 0.867188 -5.765625 0.988281 -5.8125 1.125 -5.8125 Z M 3.03125 -0.953125 C 3.382812 -0.953125 3.671875 -1.039062 3.890625 -1.21875 C 4.109375 -1.40625 4.269531 -1.644531 4.375 -1.9375 C 4.476562 -2.238281 4.53125 -2.5625 4.53125 -2.90625 C 4.53125 -3.164062 4.5 -3.410156 4.4375 -3.640625 C 4.382812 -3.878906 4.296875 -4.085938 4.171875 -4.265625 C 4.046875 -4.453125 3.890625 -4.597656 3.703125 -4.703125 C 3.515625 -4.804688 3.289062 -4.859375 3.03125 -4.859375 L 1.578125 -4.859375 L 1.65625 -4.9375 L 1.65625 -0.859375 L 1.609375 -0.953125 Z M 3.03125 -0.953125 "/></g></g></g><g fill="#000000" fill-opacity="1"><g transform="translate(186.64133, 203.717563)"><g><path d="M 2.765625 -4.515625 L 0.96875 -0.296875 C 0.925781 -0.191406 0.863281 -0.109375 0.78125 -0.046875 C 0.707031 0.015625 0.625 0.046875 0.53125 0.046875 C 0.375 0.046875 0.257812 0.00390625 0.1875 -0.078125 C 0.113281 -0.160156 0.078125 -0.265625 0.078125 -0.390625 C 0.078125 -0.441406 0.0859375 -0.492188 0.109375 -0.546875 L 2.171875 -5.515625 C 2.222656 -5.628906 2.289062 -5.71875 2.375 -5.78125 C 2.46875 -5.84375 2.566406 -5.867188 2.671875 -5.859375 C 2.773438 -5.859375 2.867188 -5.828125 2.953125 -5.765625 C 3.035156 -5.703125 3.097656 -5.617188 3.140625 -5.515625 L 5.1875 -0.640625 C 5.21875 -0.578125 5.234375 -0.515625 5.234375 -0.453125 C 5.234375 -0.296875 5.179688 -0.171875 5.078125 -0.078125 C 4.984375 0.00390625 4.878906 0.046875 4.765625 0.046875 C 4.660156 0.046875 4.566406 0.015625 4.484375 -0.046875 C 4.410156 -0.109375 4.351562 -0.191406 4.3125 -0.296875 L 2.515625 -4.46875 Z M 1.21875 -1.3125 L 1.671875 -2.265625 L 3.921875 -2.265625 L 4.078125 -1.3125 Z M 1.21875 -1.3125 "/></g></g></g><g fill="#000000" fill-opacity="1"><g transform="translate(198.613466, 203.717563)"><g/></g></g><g fill="#000000" fill-opacity="1"><g transform="translate(132.800483, 214.114217)"><g><path d="M 3.03125 -5.8125 C 3.3125 -5.8125 3.578125 -5.726562 3.828125 -5.5625 C 4.085938 -5.394531 4.296875 -5.171875 4.453125 -4.890625 C 4.609375 -4.609375 4.6875 -4.296875 4.6875 -3.953125 C 4.6875 -3.609375 4.609375 -3.289062 4.453125 -3 C 4.296875 -2.71875 4.085938 -2.492188 3.828125 -2.328125 C 3.578125 -2.160156 3.3125 -2.078125 3.03125 -2.078125 L 1.5 -2.078125 L 1.578125 -2.234375 L 1.578125 -0.5 C 1.578125 -0.363281 1.53125 -0.242188 1.4375 -0.140625 C 1.351562 -0.046875 1.238281 0 1.09375 0 C 0.957031 0 0.84375 -0.046875 0.75 -0.140625 C 0.664062 -0.242188 0.625 -0.363281 0.625 -0.5 L 0.625 -5.3125 C 0.625 -5.457031 0.671875 -5.578125 0.765625 -5.671875 C 0.867188 -5.765625 0.988281 -5.8125 1.125 -5.8125 Z M 3.03125 -3.03125 C 3.132812 -3.03125 3.234375 -3.070312 3.328125 -3.15625 C 3.429688 -3.25 3.515625 -3.363281 3.578125 -3.5 C 3.648438 -3.644531 3.6875 -3.796875 3.6875 -3.953125 C 3.6875 -4.109375 3.648438 -4.253906 3.578125 -4.390625 C 3.515625 -4.535156 3.429688 -4.648438 3.328125 -4.734375 C 3.234375 -4.816406 3.132812 -4.859375 3.03125 -4.859375 L 1.484375 -4.859375 L 1.578125 -5.015625 L 1.578125 -2.890625 L 1.484375 -3.03125 Z M 3.03125 -3.03125 "/></g></g></g><g fill="#000000" fill-opacity="1"><g transform="translate(144.469725, 214.114217)"><g><path d="M 2.765625 -4.515625 L 0.96875 -0.296875 C 0.925781 -0.191406 0.863281 -0.109375 0.78125 -0.046875 C 0.707031 0.015625 0.625 0.046875 0.53125 0.046875 C 0.375 0.046875 0.257812 0.00390625 0.1875 -0.078125 C 0.113281 -0.160156 0.078125 -0.265625 0.078125 -0.390625 C 0.078125 -0.441406 0.0859375 -0.492188 0.109375 -0.546875 L 2.171875 -5.515625 C 2.222656 -5.628906 2.289062 -5.71875 2.375 -5.78125 C 2.46875 -5.84375 2.566406 -5.867188 2.671875 -5.859375 C 2.773438 -5.859375 2.867188 -5.828125 2.953125 -5.765625 C 3.035156 -5.703125 3.097656 -5.617188 3.140625 -5.515625 L 5.1875 -0.640625 C 5.21875 -0.578125 5.234375 -0.515625 5.234375 -0.453125 C 5.234375 -0.296875 5.179688 -0.171875 5.078125 -0.078125 C 4.984375 0.00390625 4.878906 0.046875 4.765625 0.046875 C 4.660156 0.046875 4.566406 0.015625 4.484375 -0.046875 C 4.410156 -0.109375 4.351562 -0.191406 4.3125 -0.296875 L 2.515625 -4.46875 Z M 1.21875 -1.3125 L 1.671875 -2.265625 L 3.921875 -2.265625 L 4.078125 -1.3125 Z M 1.21875 -1.3125 "/></g></g></g><g fill="#000000" fill-opacity="1"><g transform="translate(156.438394, 214.114217)"><g><path d="M 3.828125 -0.96875 C 3.972656 -0.96875 4.09375 -0.921875 4.1875 -0.828125 C 4.289062 -0.742188 4.34375 -0.628906 4.34375 -0.484375 C 4.34375 -0.347656 4.289062 -0.234375 4.1875 -0.140625 C 4.09375 -0.046875 3.972656 0 3.828125 0 L 1.125 0 C 0.988281 0 0.867188 -0.046875 0.765625 -0.140625 C 0.671875 -0.242188 0.625 -0.363281 0.625 -0.5 L 0.625 -5.3125 C 0.625 -5.457031 0.671875 -5.578125 0.765625 -5.671875 C 0.867188 -5.765625 1 -5.8125 1.15625 -5.8125 C 1.289062 -5.8125 1.40625 -5.765625 1.5 -5.671875 C 1.601562 -5.578125 1.65625 -5.457031 1.65625 -5.3125 L 1.65625 -0.828125 L 1.484375 -0.96875 Z M 3.828125 -0.96875 "/></g></g></g><g fill="#000000" fill-opacity="1"><g transform="translate(167.766624, 214.114217)"><g><path d="M 1.140625 -5.828125 C 1.222656 -5.828125 1.304688 -5.804688 1.390625 -5.765625 C 1.472656 -5.722656 1.539062 -5.671875 1.59375 -5.609375 L 3.609375 -2.5 L 3.1875 -2.515625 L 5.265625 -5.609375 C 5.367188 -5.753906 5.503906 -5.828125 5.671875 -5.828125 C 5.804688 -5.828125 5.925781 -5.78125 6.03125 -5.6875 C 6.132812 -5.59375 6.1875 -5.46875 6.1875 -5.3125 L 6.1875 -0.5 C 6.1875 -0.363281 6.140625 -0.242188 6.046875 -0.140625 C 5.953125 -0.046875 5.828125 0 5.671875 0 C 5.515625 0 5.382812 -0.046875 5.28125 -0.140625 C 5.1875 -0.242188 5.140625 -0.363281 5.140625 -0.5 L 5.140625 -4.421875 L 5.46875 -4.34375 L 3.78125 -1.765625 C 3.726562 -1.703125 3.660156 -1.644531 3.578125 -1.59375 C 3.503906 -1.550781 3.429688 -1.535156 3.359375 -1.546875 C 3.285156 -1.535156 3.210938 -1.550781 3.140625 -1.59375 C 3.066406 -1.644531 3.003906 -1.703125 2.953125 -1.765625 L 1.359375 -4.265625 L 1.578125 -4.71875 L 1.578125 -0.5 C 1.578125 -0.363281 1.53125 -0.242188 1.4375 -0.140625 C 1.351562 -0.046875 1.238281 0 1.09375 0 C 0.957031 0 0.84375 -0.046875 0.75 -0.140625 C 0.664062 -0.242188 0.625 -0.363281 0.625 -0.5 L 0.625 -5.3125 C 0.625 -5.457031 0.675781 -5.578125 0.78125 -5.671875 C 0.882812 -5.773438 1.003906 -5.828125 1.140625 -5.828125 Z M 1.140625 -5.828125 "/></g></g></g><g fill="#000000" fill-opacity="1"><g transform="translate(181.232412, 214.114217)"><g><path d="M 1.65625 -0.5 C 1.65625 -0.363281 1.601562 -0.242188 1.5 -0.140625 C 1.394531 -0.046875 1.273438 0 1.140625 0 C 0.984375 0 0.859375 -0.046875 0.765625 -0.140625 C 0.671875 -0.242188 0.625 -0.363281 0.625 -0.5 L 0.625 -5.3125 C 0.625 -5.457031 0.671875 -5.578125 0.765625 -5.671875 C 0.867188 -5.765625 1 -5.8125 1.15625 -5.8125 C 1.289062 -5.8125 1.40625 -5.765625 1.5 -5.671875 C 1.601562 -5.578125 1.65625 -5.457031 1.65625 -5.3125 Z M 1.65625 -0.5 "/></g></g></g><g fill="#000000" fill-opacity="1"><g transform="translate(190.173546, 214.114217)"><g><path d="M 1.21875 0 C 1.0625 0 0.921875 -0.046875 0.796875 -0.140625 C 0.679688 -0.242188 0.625 -0.363281 0.625 -0.5 L 0.625 -5.3125 C 0.625 -5.457031 0.671875 -5.578125 0.765625 -5.671875 C 0.867188 -5.765625 0.988281 -5.8125 1.125 -5.8125 L 3.53125 -5.8125 C 3.8125 -5.8125 4.078125 -5.734375 4.328125 -5.578125 C 4.585938 -5.429688 4.789062 -5.222656 4.9375 -4.953125 C 5.09375 -4.691406 5.171875 -4.382812 5.171875 -4.03125 C 5.171875 -3.820312 5.128906 -3.613281 5.046875 -3.40625 C 4.960938 -3.207031 4.847656 -3.03125 4.703125 -2.875 C 4.554688 -2.71875 4.390625 -2.59375 4.203125 -2.5 L 4.21875 -2.6875 C 4.375 -2.601562 4.5 -2.503906 4.59375 -2.390625 C 4.695312 -2.285156 4.773438 -2.164062 4.828125 -2.03125 C 4.890625 -1.90625 4.929688 -1.765625 4.953125 -1.609375 C 4.972656 -1.472656 4.984375 -1.351562 4.984375 -1.25 C 4.992188 -1.144531 5.007812 -1.054688 5.03125 -0.984375 C 5.0625 -0.910156 5.113281 -0.851562 5.1875 -0.8125 C 5.3125 -0.738281 5.390625 -0.632812 5.421875 -0.5 C 5.453125 -0.363281 5.414062 -0.242188 5.3125 -0.140625 C 5.257812 -0.0664062 5.1875 -0.0195312 5.09375 0 C 5 0.0195312 4.898438 0.0195312 4.796875 0 C 4.703125 -0.0195312 4.628906 -0.046875 4.578125 -0.078125 C 4.484375 -0.140625 4.382812 -0.222656 4.28125 -0.328125 C 4.1875 -0.429688 4.109375 -0.570312 4.046875 -0.75 C 3.992188 -0.9375 3.96875 -1.175781 3.96875 -1.46875 C 3.96875 -1.5625 3.953125 -1.648438 3.921875 -1.734375 C 3.890625 -1.816406 3.84375 -1.882812 3.78125 -1.9375 C 3.71875 -2 3.640625 -2.046875 3.546875 -2.078125 C 3.453125 -2.109375 3.34375 -2.125 3.21875 -2.125 L 1.53125 -2.125 L 1.65625 -2.3125 L 1.65625 -0.5 C 1.65625 -0.363281 1.617188 -0.242188 1.546875 -0.140625 C 1.472656 -0.046875 1.363281 0 1.21875 0 Z M 1.546875 -2.96875 L 3.484375 -2.96875 C 3.578125 -2.96875 3.671875 -3.015625 3.765625 -3.109375 C 3.867188 -3.203125 3.945312 -3.328125 4 -3.484375 C 4.0625 -3.640625 4.09375 -3.8125 4.09375 -4 C 4.09375 -4.25 4.023438 -4.453125 3.890625 -4.609375 C 3.765625 -4.773438 3.628906 -4.859375 3.484375 -4.859375 L 1.5625 -4.859375 L 1.65625 -5.125 L 1.65625 -2.78125 Z M 1.546875 -2.96875 "/></g></g></g><g fill="#000000" fill-opacity="1"><g transform="translate(202.541449, 214.114217)"><g><path d="M 1.65625 -0.5 C 1.65625 -0.363281 1.601562 -0.242188 1.5 -0.140625 C 1.394531 -0.046875 1.273438 0 1.140625 0 C 0.984375 0 0.859375 -0.046875 0.765625 -0.140625 C 0.671875 -0.242188 0.625 -0.363281 0.625 -0.5 L 0.625 -5.3125 C 0.625 -5.457031 0.671875 -5.578125 0.765625 -5.671875 C 0.867188 -5.765625 1 -5.8125 1.15625 -5.8125 C 1.289062 -5.8125 1.40625 -5.765625 1.5 -5.671875 C 1.601562 -5.578125 1.65625 -5.457031 1.65625 -5.3125 Z M 1.65625 -0.5 "/></g></g></g><g fill="#000000" fill-opacity="1"><g transform="translate(211.482582, 214.114217)"><g><path d="M 5.03125 -5.8125 C 5.164062 -5.8125 5.273438 -5.765625 5.359375 -5.671875 C 5.441406 -5.585938 5.484375 -5.484375 5.484375 -5.359375 L 5.484375 -0.5 C 5.484375 -0.363281 5.429688 -0.242188 5.328125 -0.140625 C 5.234375 -0.046875 5.117188 0 4.984375 0 C 4.910156 0 4.832031 -0.0078125 4.75 -0.03125 C 4.675781 -0.0625 4.625 -0.0976562 4.59375 -0.140625 L 1.328125 -4.296875 L 1.53125 -4.421875 L 1.53125 -0.46875 C 1.53125 -0.332031 1.488281 -0.21875 1.40625 -0.125 C 1.320312 -0.0390625 1.210938 0 1.078125 0 C 0.941406 0 0.832031 -0.0390625 0.75 -0.125 C 0.664062 -0.21875 0.625 -0.332031 0.625 -0.46875 L 0.625 -5.3125 C 0.625 -5.457031 0.671875 -5.578125 0.765625 -5.671875 C 0.867188 -5.765625 0.988281 -5.8125 1.125 -5.8125 C 1.207031 -5.8125 1.289062 -5.796875 1.375 -5.765625 C 1.457031 -5.742188 1.515625 -5.703125 1.546875 -5.640625 L 4.71875 -1.59375 L 4.578125 -1.5 L 4.578125 -5.359375 C 4.578125 -5.484375 4.617188 -5.585938 4.703125 -5.671875 C 4.785156 -5.765625 4.894531 -5.8125 5.03125 -5.8125 Z M 5.03125 -5.8125 "/></g></g></g><g fill="#000000" fill-opacity="1"><g transform="translate(224.249724, 214.114217)"><g><path d="M 1.15625 -5.8125 C 1.289062 -5.8125 1.40625 -5.765625 1.5 -5.671875 C 1.601562 -5.578125 1.65625 -5.457031 1.65625 -5.3125 L 1.65625 -0.5 C 1.65625 -0.363281 1.601562 -0.242188 1.5 -0.140625 C 1.394531 -0.046875 1.273438 0 1.140625 0 C 0.984375 0 0.859375 -0.046875 0.765625 -0.140625 C 0.671875 -0.242188 0.625 -0.363281 0.625 -0.5 L 0.625 -5.3125 C 0.625 -5.457031 0.671875 -5.578125 0.765625 -5.671875 C 0.867188 -5.765625 1 -5.8125 1.15625 -5.8125 Z M 4.84375 -5.8125 C 5 -5.8125 5.125 -5.765625 5.21875 -5.671875 C 5.3125 -5.578125 5.359375 -5.457031 5.359375 -5.3125 L 5.359375 -0.5 C 5.359375 -0.363281 5.304688 -0.242188 5.203125 -0.140625 C 5.109375 -0.046875 4.984375 0 4.828125 0 C 4.691406 0 4.570312 -0.046875 4.46875 -0.140625 C 4.363281 -0.242188 4.3125 -0.363281 4.3125 -0.5 L 4.3125 -5.3125 C 4.3125 -5.457031 4.363281 -5.578125 4.46875 -5.671875 C 4.570312 -5.765625 4.695312 -5.8125 4.84375 -5.8125 Z M 1.125 -3.40625 L 4.84375 -3.40625 L 4.84375 -2.4375 L 1.125 -2.4375 Z M 1.125 -3.40625 "/></g></g></g><g fill="#000000" fill-opacity="1"><g transform="translate(236.883788, 214.114217)"><g><path d="M 2.765625 -4.515625 L 0.96875 -0.296875 C 0.925781 -0.191406 0.863281 -0.109375 0.78125 -0.046875 C 0.707031 0.015625 0.625 0.046875 0.53125 0.046875 C 0.375 0.046875 0.257812 0.00390625 0.1875 -0.078125 C 0.113281 -0.160156 0.078125 -0.265625 0.078125 -0.390625 C 0.078125 -0.441406 0.0859375 -0.492188 0.109375 -0.546875 L 2.171875 -5.515625 C 2.222656 -5.628906 2.289062 -5.71875 2.375 -5.78125 C 2.46875 -5.84375 2.566406 -5.867188 2.671875 -5.859375 C 2.773438 -5.859375 2.867188 -5.828125 2.953125 -5.765625 C 3.035156 -5.703125 3.097656 -5.617188 3.140625 -5.515625 L 5.1875 -0.640625 C 5.21875 -0.578125 5.234375 -0.515625 5.234375 -0.453125 C 5.234375 -0.296875 5.179688 -0.171875 5.078125 -0.078125 C 4.984375 0.00390625 4.878906 0.046875 4.765625 0.046875 C 4.660156 0.046875 4.566406 0.015625 4.484375 -0.046875 C 4.410156 -0.109375 4.351562 -0.191406 4.3125 -0.296875 L 2.515625 -4.46875 Z M 1.21875 -1.3125 L 1.671875 -2.265625 L 3.921875 -2.265625 L 4.078125 -1.3125 Z M 1.21875 -1.3125 "/></g></g></g></svg>