<svg xmlns="http://www.w3.org/2000/svg" xmlns:xlink="http://www.w3.org/1999/xlink" width="500" zoomAndPan="magnify" viewBox="0 0 375 374.999991" height="500" preserveAspectRatio="xMidYMid meet" version="1.0"><defs><g/><clipPath id="d22efd5831"><path d="M 160 92.484375 L 215 92.484375 L 215 169 L 160 169 Z M 160 92.484375 " clip-rule="nonzero"/></clipPath><clipPath id="cb0ccdd492"><path d="M 90.222656 101 L 284 101 L 284 186 L 90.222656 186 Z M 90.222656 101 " clip-rule="nonzero"/></clipPath></defs><rect x="-37.5" width="450" fill="#ffffff" y="-37.499999" height="449.999989" fill-opacity="1"/><rect x="-37.5" width="450" fill="#fffbf8" y="-37.499999" height="449.999989" fill-opacity="1"/><g clip-path="url(#d22efd5831)"><path fill="#fffbf8" d="M 212.894531 154.230469 C 212.738281 154.589844 212.566406 154.945312 212.386719 155.292969 C 211.046875 157.902344 208.964844 160.53125 205.828125 162.957031 C 203.863281 164.476562 201.71875 165.722656 199.453125 166.675781 C 203.675781 162.800781 203.730469 157.316406 203.730469 157.316406 C 203.730469 157.316406 202.828125 161.609375 200.378906 161.578125 C 197.929688 161.542969 199.375 159.375 199.375 159.375 C 207.085938 150.75 200.121094 144.914062 199.980469 144.800781 C 202.597656 149.132812 200.679688 154.289062 196.949219 153.417969 C 193.214844 152.546875 194.75 145.992188 194.84375 139.710938 C 194.933594 133.433594 190.605469 131.351562 190.605469 131.351562 C 192.089844 133.886719 191.8125 136.671875 191.273438 138.640625 C 190.863281 140.144531 188.898438 140.558594 187.960938 139.3125 C 186.027344 136.738281 186.28125 132.972656 187.898438 129.3125 C 189.949219 124.679688 188.371094 121.457031 188.300781 121.316406 C 188.324219 121.460938 188.773438 124.5 183.789062 128.0625 C 178.679688 131.714844 178.957031 137.8125 180.277344 140.695312 C 181.601562 143.578125 181.011719 150.59375 175.824219 148.265625 C 170.730469 145.976562 173.921875 138.277344 174.039062 138.007812 C 163.625 158.007812 171.847656 165.671875 178.632812 168.570312 C 171.160156 167.109375 155.21875 160.535156 162.820312 131 C 162.820312 131 162.980469 140.457031 168.269531 141.578125 C 173.5625 142.699219 163.035156 116.414062 174.46875 111.605469 C 174.386719 111.757812 170.136719 119.648438 175.429688 122.714844 C 180.773438 125.816406 174.363281 102.09375 189.214844 92.476562 C 189.070312 92.6875 182.753906 101.9375 187.613281 107.433594 C 192.527344 112.992188 193.8125 115.019531 196.375 121.859375 C 198.941406 128.703125 200.332031 121.753906 199.582031 117.480469 C 198.847656 113.265625 202.367188 109.050781 202.464844 108.933594 C 202.398438 109.15625 199.992188 117.257812 206.421875 124.320312 C 207.859375 125.894531 208.695312 127.855469 208.625 130.003906 C 208.558594 132 207.835938 133.90625 207.089844 135.730469 C 206.285156 137.6875 205.347656 139.636719 205.003906 141.746094 C 204.746094 143.316406 204.707031 145.621094 206.128906 146.691406 C 207.261719 147.542969 208.738281 147.246094 209.835938 146.496094 C 211.183594 145.574219 212.09375 144.101562 212.558594 142.539062 C 213.023438 140.976562 213.070312 139.3125 212.949219 137.683594 C 215.078125 142.914062 215.1875 149.039062 212.894531 154.230469 " fill-opacity="1" fill-rule="nonzero"/></g><g clip-path="url(#cb0ccdd492)"><path fill="#fffbf8" d="M 232.132812 139.019531 C 230.863281 138.355469 230.421875 136.671875 231.113281 135.214844 L 241.460938 113.566406 C 241.5625 113.359375 241.675781 113.15625 241.808594 112.96875 C 242.921875 111.320312 244.960938 110.648438 246.570312 111.496094 C 248.371094 112.441406 248.917969 114.886719 247.773438 116.875 L 235.835938 137.691406 C 235.035156 139.09375 233.398438 139.679688 232.132812 139.019531 Z M 254.328125 121.726562 C 255.542969 119.78125 257.957031 119.101562 259.636719 120.242188 C 261.273438 121.355469 261.5625 123.75 260.316406 125.589844 C 260.285156 125.632812 260.253906 125.683594 260.222656 125.726562 L 246.011719 145.058594 C 245.046875 146.367188 243.363281 146.761719 242.179688 145.957031 C 240.996094 145.152344 240.738281 143.433594 241.59375 142.0625 Z M 272.589844 129.164062 C 273.964844 130.34375 274.09375 132.488281 272.980469 134.132812 C 272.847656 134.320312 272.707031 134.503906 272.546875 134.679688 L 256.246094 152.273438 C 255.144531 153.460938 253.421875 153.664062 252.332031 152.734375 C 251.25 151.804688 251.1875 150.066406 252.195312 148.800781 L 267.140625 130.03125 C 268.574219 128.238281 271.046875 127.839844 272.589844 129.164062 Z M 249.980469 161.085938 C 255.597656 161.96875 261.246094 159.753906 264.761719 155.292969 L 281.441406 134.175781 C 284.265625 130.609375 283.460938 125.394531 279.699219 122.839844 L 249.828125 102.558594 C 246.066406 100.003906 240.921875 101.179688 238.644531 105.117188 L 225.171875 128.40625 C 222.324219 133.324219 222.351562 139.394531 225.230469 144.285156 L 232.460938 156.539062 L 215.847656 181.003906 L 156.695312 181.003906 L 148.578125 170.183594 C 147.535156 168.800781 146.8125 167.207031 146.453125 165.523438 L 145.835938 162.566406 C 145.664062 161.78125 145.566406 160.992188 145.519531 160.207031 C 145.382812 157.734375 145.824219 155.257812 146.75 152.929688 C 147.226562 151.730469 147.433594 150.445312 147.363281 149.15625 C 147.269531 147.472656 146.691406 145.796875 145.601562 144.339844 L 107.324219 101.207031 L 109.570312 107.953125 L 131.65625 137.441406 C 132.65625 138.78125 133.183594 140.316406 133.265625 141.863281 C 133.417969 144.480469 132.292969 147.109375 130.039062 148.820312 C 126.339844 151.621094 120.957031 150.765625 118.1875 147.058594 L 96.203125 117.707031 L 90.320312 113.605469 L 120.867188 162.371094 C 122.78125 164.925781 125.804688 166.183594 128.792969 165.984375 C 132.117188 165.753906 135.429688 166.386719 138.351562 167.972656 L 141.25 169.550781 C 142.777344 170.378906 144.105469 171.53125 145.144531 172.914062 L 151.214844 181.003906 L 99.125 181.003906 L 99.125 185.722656 L 274.320312 185.722656 L 274.320312 181.003906 L 220.910156 181.003906 L 235.925781 158.890625 L 249.980469 161.085938 " fill-opacity="1" fill-rule="nonzero"/></g><path fill="#fffbf8" d="M 187.746094 222.390625 L 186.75 221.070312 L 188.644531 221.070312 Z M 221.1875 270.699219 C 223.21875 269.222656 226.074219 269.648438 227.570312 271.644531 C 228.121094 272.378906 228.410156 273.222656 228.460938 274.070312 C 228.542969 275.53125 227.894531 277.007812 226.617188 277.945312 C 224.585938 279.421875 221.726562 278.996094 220.230469 276.996094 C 219.683594 276.265625 219.386719 275.421875 219.34375 274.574219 C 219.261719 273.113281 219.902344 271.636719 221.1875 270.699219 Z M 158.429688 277.015625 C 157.085938 279.003906 154.386719 279.519531 152.402344 278.171875 C 150.421875 276.828125 149.90625 274.121094 151.253906 272.140625 C 152.597656 270.15625 155.296875 269.640625 157.277344 270.988281 C 159.261719 272.335938 159.777344 275.035156 158.429688 277.015625 Z M 191.847656 216.351562 L 99.125 216.351562 L 99.125 221.070312 L 181.277344 221.070312 L 183.375 223.863281 L 185.140625 226.222656 L 180.835938 232.5625 C 179.03125 232.285156 177.144531 233.035156 176.058594 234.648438 L 149.316406 270.457031 C 146.960938 273.613281 147.71875 278.078125 150.960938 280.285156 C 154.214844 282.496094 158.648438 281.546875 160.707031 278.199219 L 184.132812 240.132812 C 184.890625 239.019531 185.128906 237.695312 184.890625 236.472656 C 184.789062 235.929688 184.585938 235.398438 184.304688 234.917969 L 187.796875 229.769531 L 191.289062 234.433594 C 191.007812 234.941406 190.820312 235.496094 190.734375 236.0625 C 190.683594 236.40625 190.664062 236.753906 190.683594 237.101562 C 190.738281 238.050781 191.066406 239 191.683594 239.824219 L 217.890625 278.308594 C 220.195312 281.695312 224.894531 282.5 228.214844 280.078125 C 230.257812 278.589844 231.273438 276.246094 231.140625 273.925781 C 231.058594 272.476562 230.535156 271.039062 229.535156 269.824219 L 199.941406 233.804688 C 198.722656 232.179688 196.710938 231.488281 194.828125 231.847656 L 190.402344 225.941406 L 193.707031 221.070312 L 274.320312 221.070312 L 274.320312 216.351562 L 191.847656 216.351562 " fill-opacity="1" fill-rule="nonzero"/><g fill="#fffbf8" fill-opacity="1"><g transform="translate(142.709794, 193.32091)"><g><path d="M 5.984375 -2.90625 C 5.984375 -2.488281 5.910156 -2.097656 5.765625 -1.734375 C 5.628906 -1.378906 5.429688 -1.0625 5.171875 -0.78125 C 4.921875 -0.507812 4.625 -0.296875 4.28125 -0.140625 C 3.9375 0.00390625 3.5625 0.078125 3.15625 0.078125 C 2.738281 0.078125 2.359375 0.00390625 2.015625 -0.140625 C 1.671875 -0.296875 1.375 -0.507812 1.125 -0.78125 C 0.875 -1.0625 0.675781 -1.378906 0.53125 -1.734375 C 0.394531 -2.097656 0.328125 -2.488281 0.328125 -2.90625 C 0.328125 -3.320312 0.394531 -3.707031 0.53125 -4.0625 C 0.675781 -4.425781 0.875 -4.742188 1.125 -5.015625 C 1.375 -5.296875 1.671875 -5.515625 2.015625 -5.671875 C 2.359375 -5.828125 2.738281 -5.90625 3.15625 -5.90625 C 3.5625 -5.90625 3.9375 -5.828125 4.28125 -5.671875 C 4.625 -5.515625 4.921875 -5.296875 5.171875 -5.015625 C 5.429688 -4.742188 5.628906 -4.425781 5.765625 -4.0625 C 5.910156 -3.707031 5.984375 -3.320312 5.984375 -2.90625 Z M 4.890625 -2.90625 C 4.890625 -3.28125 4.816406 -3.617188 4.671875 -3.921875 C 4.523438 -4.222656 4.320312 -4.460938 4.0625 -4.640625 C 3.800781 -4.816406 3.5 -4.90625 3.15625 -4.90625 C 2.8125 -4.90625 2.507812 -4.816406 2.25 -4.640625 C 1.988281 -4.460938 1.78125 -4.222656 1.625 -3.921875 C 1.476562 -3.617188 1.40625 -3.28125 1.40625 -2.90625 C 1.40625 -2.539062 1.476562 -2.207031 1.625 -1.90625 C 1.78125 -1.601562 1.988281 -1.363281 2.25 -1.1875 C 2.507812 -1.007812 2.8125 -0.921875 3.15625 -0.921875 C 3.5 -0.921875 3.800781 -1.007812 4.0625 -1.1875 C 4.320312 -1.363281 4.523438 -1.601562 4.671875 -1.90625 C 4.816406 -2.207031 4.890625 -2.539062 4.890625 -2.90625 Z M 4.890625 -2.90625 "/></g></g></g><g fill="#fffbf8" fill-opacity="1"><g transform="translate(155.676544, 193.32091)"><g><path d="M 1.21875 0 C 1.0625 0 0.921875 -0.046875 0.796875 -0.140625 C 0.679688 -0.242188 0.625 -0.363281 0.625 -0.5 L 0.625 -5.3125 C 0.625 -5.457031 0.671875 -5.578125 0.765625 -5.671875 C 0.867188 -5.765625 0.988281 -5.8125 1.125 -5.8125 L 3.53125 -5.8125 C 3.8125 -5.8125 4.078125 -5.734375 4.328125 -5.578125 C 4.585938 -5.429688 4.789062 -5.222656 4.9375 -4.953125 C 5.09375 -4.691406 5.171875 -4.382812 5.171875 -4.03125 C 5.171875 -3.820312 5.128906 -3.613281 5.046875 -3.40625 C 4.960938 -3.207031 4.847656 -3.03125 4.703125 -2.875 C 4.554688 -2.71875 4.390625 -2.59375 4.203125 -2.5 L 4.21875 -2.6875 C 4.375 -2.601562 4.5 -2.503906 4.59375 -2.390625 C 4.695312 -2.285156 4.773438 -2.164062 4.828125 -2.03125 C 4.890625 -1.90625 4.929688 -1.765625 4.953125 -1.609375 C 4.972656 -1.472656 4.984375 -1.351562 4.984375 -1.25 C 4.992188 -1.144531 5.007812 -1.054688 5.03125 -0.984375 C 5.0625 -0.910156 5.113281 -0.851562 5.1875 -0.8125 C 5.3125 -0.738281 5.390625 -0.632812 5.421875 -0.5 C 5.453125 -0.363281 5.414062 -0.242188 5.3125 -0.140625 C 5.257812 -0.0664062 5.1875 -0.0195312 5.09375 0 C 5 0.0195312 4.898438 0.0195312 4.796875 0 C 4.703125 -0.0195312 4.628906 -0.046875 4.578125 -0.078125 C 4.484375 -0.140625 4.382812 -0.222656 4.28125 -0.328125 C 4.1875 -0.429688 4.109375 -0.570312 4.046875 -0.75 C 3.992188 -0.9375 3.96875 -1.175781 3.96875 -1.46875 C 3.96875 -1.5625 3.953125 -1.648438 3.921875 -1.734375 C 3.890625 -1.816406 3.84375 -1.882812 3.78125 -1.9375 C 3.71875 -2 3.640625 -2.046875 3.546875 -2.078125 C 3.453125 -2.109375 3.34375 -2.125 3.21875 -2.125 L 1.53125 -2.125 L 1.65625 -2.3125 L 1.65625 -0.5 C 1.65625 -0.363281 1.617188 -0.242188 1.546875 -0.140625 C 1.472656 -0.046875 1.363281 0 1.21875 0 Z M 1.546875 -2.96875 L 3.484375 -2.96875 C 3.578125 -2.96875 3.671875 -3.015625 3.765625 -3.109375 C 3.867188 -3.203125 3.945312 -3.328125 4 -3.484375 C 4.0625 -3.640625 4.09375 -3.8125 4.09375 -4 C 4.09375 -4.25 4.023438 -4.453125 3.890625 -4.609375 C 3.765625 -4.773438 3.628906 -4.859375 3.484375 -4.859375 L 1.5625 -4.859375 L 1.65625 -5.125 L 1.65625 -2.78125 Z M 1.546875 -2.96875 "/></g></g></g><g fill="#fffbf8" fill-opacity="1"><g transform="translate(168.044448, 193.32091)"><g><path d="M 3.359375 0.078125 C 2.941406 0.078125 2.550781 0.00390625 2.1875 -0.140625 C 1.820312 -0.296875 1.5 -0.507812 1.21875 -0.78125 C 0.945312 -1.0625 0.726562 -1.378906 0.5625 -1.734375 C 0.40625 -2.097656 0.328125 -2.488281 0.328125 -2.90625 C 0.328125 -3.320312 0.40625 -3.707031 0.5625 -4.0625 C 0.726562 -4.425781 0.945312 -4.742188 1.21875 -5.015625 C 1.5 -5.296875 1.820312 -5.515625 2.1875 -5.671875 C 2.550781 -5.828125 2.941406 -5.90625 3.359375 -5.90625 C 3.617188 -5.90625 3.867188 -5.875 4.109375 -5.8125 C 4.359375 -5.757812 4.585938 -5.675781 4.796875 -5.5625 C 4.878906 -5.519531 4.941406 -5.460938 4.984375 -5.390625 C 5.023438 -5.316406 5.046875 -5.238281 5.046875 -5.15625 C 5.046875 -5.03125 5 -4.910156 4.90625 -4.796875 C 4.820312 -4.691406 4.710938 -4.640625 4.578125 -4.640625 C 4.523438 -4.640625 4.472656 -4.644531 4.421875 -4.65625 C 4.378906 -4.675781 4.335938 -4.695312 4.296875 -4.71875 C 4.160156 -4.769531 4.015625 -4.8125 3.859375 -4.84375 C 3.703125 -4.882812 3.535156 -4.90625 3.359375 -4.90625 C 3.003906 -4.90625 2.675781 -4.8125 2.375 -4.625 C 2.082031 -4.445312 1.847656 -4.207031 1.671875 -3.90625 C 1.492188 -3.601562 1.40625 -3.269531 1.40625 -2.90625 C 1.40625 -2.550781 1.492188 -2.21875 1.671875 -1.90625 C 1.847656 -1.601562 2.082031 -1.363281 2.375 -1.1875 C 2.675781 -1.007812 3.003906 -0.921875 3.359375 -0.921875 C 3.523438 -0.921875 3.707031 -0.9375 3.90625 -0.96875 C 4.113281 -1 4.28125 -1.039062 4.40625 -1.09375 L 4.328125 -0.84375 L 4.328125 -2.265625 L 4.46875 -2.140625 L 3.546875 -2.140625 C 3.398438 -2.140625 3.28125 -2.1875 3.1875 -2.28125 C 3.09375 -2.375 3.046875 -2.492188 3.046875 -2.640625 C 3.046875 -2.785156 3.09375 -2.90625 3.1875 -3 C 3.28125 -3.09375 3.398438 -3.140625 3.546875 -3.140625 L 4.90625 -3.140625 C 5.050781 -3.140625 5.171875 -3.085938 5.265625 -2.984375 C 5.359375 -2.890625 5.40625 -2.773438 5.40625 -2.640625 L 5.40625 -0.875 C 5.40625 -0.757812 5.378906 -0.664062 5.328125 -0.59375 C 5.273438 -0.519531 5.21875 -0.460938 5.15625 -0.421875 C 4.894531 -0.265625 4.613281 -0.140625 4.3125 -0.046875 C 4.007812 0.0351562 3.691406 0.078125 3.359375 0.078125 Z M 3.359375 0.078125 "/></g></g></g><g fill="#fffbf8" fill-opacity="1"><g transform="translate(180.48721, 193.32091)"><g><path d="M 4.75 -5.828125 C 4.894531 -5.828125 5.007812 -5.773438 5.09375 -5.671875 C 5.1875 -5.578125 5.234375 -5.457031 5.234375 -5.3125 L 5.234375 -2.3125 C 5.234375 -1.851562 5.132812 -1.445312 4.9375 -1.09375 C 4.738281 -0.738281 4.46875 -0.457031 4.125 -0.25 C 3.78125 -0.0507812 3.382812 0.046875 2.9375 0.046875 C 2.476562 0.046875 2.078125 -0.0507812 1.734375 -0.25 C 1.390625 -0.457031 1.117188 -0.738281 0.921875 -1.09375 C 0.722656 -1.445312 0.625 -1.851562 0.625 -2.3125 L 0.625 -5.3125 C 0.625 -5.457031 0.671875 -5.578125 0.765625 -5.671875 C 0.867188 -5.773438 1 -5.828125 1.15625 -5.828125 C 1.28125 -5.828125 1.394531 -5.773438 1.5 -5.671875 C 1.601562 -5.578125 1.65625 -5.457031 1.65625 -5.3125 L 1.65625 -2.3125 C 1.65625 -2.03125 1.710938 -1.785156 1.828125 -1.578125 C 1.953125 -1.378906 2.113281 -1.222656 2.3125 -1.109375 C 2.507812 -1.003906 2.71875 -0.953125 2.9375 -0.953125 C 3.175781 -0.953125 3.394531 -1.003906 3.59375 -1.109375 C 3.800781 -1.222656 3.96875 -1.378906 4.09375 -1.578125 C 4.226562 -1.785156 4.296875 -2.03125 4.296875 -2.3125 L 4.296875 -5.3125 C 4.296875 -5.457031 4.332031 -5.578125 4.40625 -5.671875 C 4.488281 -5.773438 4.601562 -5.828125 4.75 -5.828125 Z M 4.75 -5.828125 "/></g></g></g><g fill="#fffbf8" fill-opacity="1"><g transform="translate(193.004816, 193.32091)"><g><path d="M 3.828125 -0.96875 C 3.972656 -0.96875 4.09375 -0.921875 4.1875 -0.828125 C 4.289062 -0.742188 4.34375 -0.628906 4.34375 -0.484375 C 4.34375 -0.347656 4.289062 -0.234375 4.1875 -0.140625 C 4.09375 -0.046875 3.972656 0 3.828125 0 L 1.125 0 C 0.988281 0 0.867188 -0.046875 0.765625 -0.140625 C 0.671875 -0.242188 0.625 -0.363281 0.625 -0.5 L 0.625 -5.3125 C 0.625 -5.457031 0.671875 -5.578125 0.765625 -5.671875 C 0.867188 -5.765625 1 -5.8125 1.15625 -5.8125 C 1.289062 -5.8125 1.40625 -5.765625 1.5 -5.671875 C 1.601562 -5.578125 1.65625 -5.457031 1.65625 -5.3125 L 1.65625 -0.828125 L 1.484375 -0.96875 Z M 3.828125 -0.96875 "/></g></g></g><g fill="#fffbf8" fill-opacity="1"><g transform="translate(204.333042, 193.32091)"><g><path d="M 1.15625 -5.8125 C 1.289062 -5.8125 1.40625 -5.765625 1.5 -5.671875 C 1.601562 -5.578125 1.65625 -5.457031 1.65625 -5.3125 L 1.65625 -0.5 C 1.65625 -0.363281 1.601562 -0.242188 1.5 -0.140625 C 1.394531 -0.046875 1.273438 0 1.140625 0 C 0.984375 0 0.859375 -0.046875 0.765625 -0.140625 C 0.671875 -0.242188 0.625 -0.363281 0.625 -0.5 L 0.625 -5.3125 C 0.625 -5.457031 0.671875 -5.578125 0.765625 -5.671875 C 0.867188 -5.765625 1 -5.8125 1.15625 -5.8125 Z M 4.84375 -5.8125 C 5 -5.8125 5.125 -5.765625 5.21875 -5.671875 C 5.3125 -5.578125 5.359375 -5.457031 5.359375 -5.3125 L 5.359375 -0.5 C 5.359375 -0.363281 5.304688 -0.242188 5.203125 -0.140625 C 5.109375 -0.046875 4.984375 0 4.828125 0 C 4.691406 0 4.570312 -0.046875 4.46875 -0.140625 C 4.363281 -0.242188 4.3125 -0.363281 4.3125 -0.5 L 4.3125 -5.3125 C 4.3125 -5.457031 4.363281 -5.578125 4.46875 -5.671875 C 4.570312 -5.765625 4.695312 -5.8125 4.84375 -5.8125 Z M 1.125 -3.40625 L 4.84375 -3.40625 L 4.84375 -2.4375 L 1.125 -2.4375 Z M 1.125 -3.40625 "/></g></g></g><g fill="#fffbf8" fill-opacity="1"><g transform="translate(216.967101, 193.32091)"><g><path d="M 5.984375 -2.90625 C 5.984375 -2.488281 5.910156 -2.097656 5.765625 -1.734375 C 5.628906 -1.378906 5.429688 -1.0625 5.171875 -0.78125 C 4.921875 -0.507812 4.625 -0.296875 4.28125 -0.140625 C 3.9375 0.00390625 3.5625 0.078125 3.15625 0.078125 C 2.738281 0.078125 2.359375 0.00390625 2.015625 -0.140625 C 1.671875 -0.296875 1.375 -0.507812 1.125 -0.78125 C 0.875 -1.0625 0.675781 -1.378906 0.53125 -1.734375 C 0.394531 -2.097656 0.328125 -2.488281 0.328125 -2.90625 C 0.328125 -3.320312 0.394531 -3.707031 0.53125 -4.0625 C 0.675781 -4.425781 0.875 -4.742188 1.125 -5.015625 C 1.375 -5.296875 1.671875 -5.515625 2.015625 -5.671875 C 2.359375 -5.828125 2.738281 -5.90625 3.15625 -5.90625 C 3.5625 -5.90625 3.9375 -5.828125 4.28125 -5.671875 C 4.625 -5.515625 4.921875 -5.296875 5.171875 -5.015625 C 5.429688 -4.742188 5.628906 -4.425781 5.765625 -4.0625 C 5.910156 -3.707031 5.984375 -3.320312 5.984375 -2.90625 Z M 4.890625 -2.90625 C 4.890625 -3.28125 4.816406 -3.617188 4.671875 -3.921875 C 4.523438 -4.222656 4.320312 -4.460938 4.0625 -4.640625 C 3.800781 -4.816406 3.5 -4.90625 3.15625 -4.90625 C 2.8125 -4.90625 2.507812 -4.816406 2.25 -4.640625 C 1.988281 -4.460938 1.78125 -4.222656 1.625 -3.921875 C 1.476562 -3.617188 1.40625 -3.28125 1.40625 -2.90625 C 1.40625 -2.539062 1.476562 -2.207031 1.625 -1.90625 C 1.78125 -1.601562 1.988281 -1.363281 2.25 -1.1875 C 2.507812 -1.007812 2.8125 -0.921875 3.15625 -0.921875 C 3.5 -0.921875 3.800781 -1.007812 4.0625 -1.1875 C 4.320312 -1.363281 4.523438 -1.601562 4.671875 -1.90625 C 4.816406 -2.207031 4.890625 -2.539062 4.890625 -2.90625 Z M 4.890625 -2.90625 "/></g></g></g><g fill="#fffbf8" fill-opacity="1"><g transform="translate(229.944215, 193.32091)"><g/></g></g><g fill="#fffbf8" fill-opacity="1"><g transform="translate(174.040542, 203.717563)"><g><path d="M 3.109375 -5.8125 C 3.515625 -5.8125 3.867188 -5.738281 4.171875 -5.59375 C 4.484375 -5.445312 4.742188 -5.238281 4.953125 -4.96875 C 5.171875 -4.695312 5.332031 -4.382812 5.4375 -4.03125 C 5.550781 -3.6875 5.609375 -3.3125 5.609375 -2.90625 C 5.609375 -2.375 5.507812 -1.882812 5.3125 -1.4375 C 5.125 -1 4.84375 -0.648438 4.46875 -0.390625 C 4.101562 -0.128906 3.648438 0 3.109375 0 L 1.125 0 C 0.988281 0 0.867188 -0.046875 0.765625 -0.140625 C 0.671875 -0.242188 0.625 -0.363281 0.625 -0.5 L 0.625 -5.3125 C 0.625 -5.457031 0.671875 -5.578125 0.765625 -5.671875 C 0.867188 -5.765625 0.988281 -5.8125 1.125 -5.8125 Z M 3.03125 -0.953125 C 3.382812 -0.953125 3.671875 -1.039062 3.890625 -1.21875 C 4.109375 -1.40625 4.269531 -1.644531 4.375 -1.9375 C 4.476562 -2.238281 4.53125 -2.5625 4.53125 -2.90625 C 4.53125 -3.164062 4.5 -3.410156 4.4375 -3.640625 C 4.382812 -3.878906 4.296875 -4.085938 4.171875 -4.265625 C 4.046875 -4.453125 3.890625 -4.597656 3.703125 -4.703125 C 3.515625 -4.804688 3.289062 -4.859375 3.03125 -4.859375 L 1.578125 -4.859375 L 1.65625 -4.9375 L 1.65625 -0.859375 L 1.609375 -0.953125 Z M 3.03125 -0.953125 "/></g></g></g><g fill="#fffbf8" fill-opacity="1"><g transform="translate(186.64133, 203.717563)"><g><path d="M 2.765625 -4.515625 L 0.96875 -0.296875 C 0.925781 -0.191406 0.863281 -0.109375 0.78125 -0.046875 C 0.707031 0.015625 0.625 0.046875 0.53125 0.046875 C 0.375 0.046875 0.257812 0.00390625 0.1875 -0.078125 C 0.113281 -0.160156 0.078125 -0.265625 0.078125 -0.390625 C 0.078125 -0.441406 0.0859375 -0.492188 0.109375 -0.546875 L 2.171875 -5.515625 C 2.222656 -5.628906 2.289062 -5.71875 2.375 -5.78125 C 2.46875 -5.84375 2.566406 -5.867188 2.671875 -5.859375 C 2.773438 -5.859375 2.867188 -5.828125 2.953125 -5.765625 C 3.035156 -5.703125 3.097656 -5.617188 3.140625 -5.515625 L 5.1875 -0.640625 C 5.21875 -0.578125 5.234375 -0.515625 5.234375 -0.453125 C 5.234375 -0.296875 5.179688 -0.171875 5.078125 -0.078125 C 4.984375 0.00390625 4.878906 0.046875 4.765625 0.046875 C 4.660156 0.046875 4.566406 0.015625 4.484375 -0.046875 C 4.410156 -0.109375 4.351562 -0.191406 4.3125 -0.296875 L 2.515625 -4.46875 Z M 1.21875 -1.3125 L 1.671875 -2.265625 L 3.921875 -2.265625 L 4.078125 -1.3125 Z M 1.21875 -1.3125 "/></g></g></g><g fill="#fffbf8" fill-opacity="1"><g transform="translate(198.613466, 203.717563)"><g/></g></g><g fill="#fffbf8" fill-opacity="1"><g transform="translate(132.800483, 214.114217)"><g><path d="M 3.03125 -5.8125 C 3.3125 -5.8125 3.578125 -5.726562 3.828125 -5.5625 C 4.085938 -5.394531 4.296875 -5.171875 4.453125 -4.890625 C 4.609375 -4.609375 4.6875 -4.296875 4.6875 -3.953125 C 4.6875 -3.609375 4.609375 -3.289062 4.453125 -3 C 4.296875 -2.71875 4.085938 -2.492188 3.828125 -2.328125 C 3.578125 -2.160156 3.3125 -2.078125 3.03125 -2.078125 L 1.5 -2.078125 L 1.578125 -2.234375 L 1.578125 -0.5 C 1.578125 -0.363281 1.53125 -0.242188 1.4375 -0.140625 C 1.351562 -0.046875 1.238281 0 1.09375 0 C 0.957031 0 0.84375 -0.046875 0.75 -0.140625 C 0.664062 -0.242188 0.625 -0.363281 0.625 -0.5 L 0.625 -5.3125 C 0.625 -5.457031 0.671875 -5.578125 0.765625 -5.671875 C 0.867188 -5.765625 0.988281 -5.8125 1.125 -5.8125 Z M 3.03125 -3.03125 C 3.132812 -3.03125 3.234375 -3.070312 3.328125 -3.15625 C 3.429688 -3.25 3.515625 -3.363281 3.578125 -3.5 C 3.648438 -3.644531 3.6875 -3.796875 3.6875 -3.953125 C 3.6875 -4.109375 3.648438 -4.253906 3.578125 -4.390625 C 3.515625 -4.535156 3.429688 -4.648438 3.328125 -4.734375 C 3.234375 -4.816406 3.132812 -4.859375 3.03125 -4.859375 L 1.484375 -4.859375 L 1.578125 -5.015625 L 1.578125 -2.890625 L 1.484375 -3.03125 Z M 3.03125 -3.03125 "/></g></g></g><g fill="#fffbf8" fill-opacity="1"><g transform="translate(144.469725, 214.114217)"><g><path d="M 2.765625 -4.515625 L 0.96875 -0.296875 C 0.925781 -0.191406 0.863281 -0.109375 0.78125 -0.046875 C 0.707031 0.015625 0.625 0.046875 0.53125 0.046875 C 0.375 0.046875 0.257812 0.00390625 0.1875 -0.078125 C 0.113281 -0.160156 0.078125 -0.265625 0.078125 -0.390625 C 0.078125 -0.441406 0.0859375 -0.492188 0.109375 -0.546875 L 2.171875 -5.515625 C 2.222656 -5.628906 2.289062 -5.71875 2.375 -5.78125 C 2.46875 -5.84375 2.566406 -5.867188 2.671875 -5.859375 C 2.773438 -5.859375 2.867188 -5.828125 2.953125 -5.765625 C 3.035156 -5.703125 3.097656 -5.617188 3.140625 -5.515625 L 5.1875 -0.640625 C 5.21875 -0.578125 5.234375 -0.515625 5.234375 -0.453125 C 5.234375 -0.296875 5.179688 -0.171875 5.078125 -0.078125 C 4.984375 0.00390625 4.878906 0.046875 4.765625 0.046875 C 4.660156 0.046875 4.566406 0.015625 4.484375 -0.046875 C 4.410156 -0.109375 4.351562 -0.191406 4.3125 -0.296875 L 2.515625 -4.46875 Z M 1.21875 -1.3125 L 1.671875 -2.265625 L 3.921875 -2.265625 L 4.078125 -1.3125 Z M 1.21875 -1.3125 "/></g></g></g><g fill="#fffbf8" fill-opacity="1"><g transform="translate(156.438394, 214.114217)"><g><path d="M 3.828125 -0.96875 C 3.972656 -0.96875 4.09375 -0.921875 4.1875 -0.828125 C 4.289062 -0.742188 4.34375 -0.628906 4.34375 -0.484375 C 4.34375 -0.347656 4.289062 -0.234375 4.1875 -0.140625 C 4.09375 -0.046875 3.972656 0 3.828125 0 L 1.125 0 C 0.988281 0 0.867188 -0.046875 0.765625 -0.140625 C 0.671875 -0.242188 0.625 -0.363281 0.625 -0.5 L 0.625 -5.3125 C 0.625 -5.457031 0.671875 -5.578125 0.765625 -5.671875 C 0.867188 -5.765625 1 -5.8125 1.15625 -5.8125 C 1.289062 -5.8125 1.40625 -5.765625 1.5 -5.671875 C 1.601562 -5.578125 1.65625 -5.457031 1.65625 -5.3125 L 1.65625 -0.828125 L 1.484375 -0.96875 Z M 3.828125 -0.96875 "/></g></g></g><g fill="#fffbf8" fill-opacity="1"><g transform="translate(167.766624, 214.114217)"><g><path d="M 1.140625 -5.828125 C 1.222656 -5.828125 1.304688 -5.804688 1.390625 -5.765625 C 1.472656 -5.722656 1.539062 -5.671875 1.59375 -5.609375 L 3.609375 -2.5 L 3.1875 -2.515625 L 5.265625 -5.609375 C 5.367188 -5.753906 5.503906 -5.828125 5.671875 -5.828125 C 5.804688 -5.828125 5.925781 -5.78125 6.03125 -5.6875 C 6.132812 -5.59375 6.1875 -5.46875 6.1875 -5.3125 L 6.1875 -0.5 C 6.1875 -0.363281 6.140625 -0.242188 6.046875 -0.140625 C 5.953125 -0.046875 5.828125 0 5.671875 0 C 5.515625 0 5.382812 -0.046875 5.28125 -0.140625 C 5.1875 -0.242188 5.140625 -0.363281 5.140625 -0.5 L 5.140625 -4.421875 L 5.46875 -4.34375 L 3.78125 -1.765625 C 3.726562 -1.703125 3.660156 -1.644531 3.578125 -1.59375 C 3.503906 -1.550781 3.429688 -1.535156 3.359375 -1.546875 C 3.285156 -1.535156 3.210938 -1.550781 3.140625 -1.59375 C 3.066406 -1.644531 3.003906 -1.703125 2.953125 -1.765625 L 1.359375 -4.265625 L 1.578125 -4.71875 L 1.578125 -0.5 C 1.578125 -0.363281 1.53125 -0.242188 1.4375 -0.140625 C 1.351562 -0.046875 1.238281 0 1.09375 0 C 0.957031 0 0.84375 -0.046875 0.75 -0.140625 C 0.664062 -0.242188 0.625 -0.363281 0.625 -0.5 L 0.625 -5.3125 C 0.625 -5.457031 0.675781 -5.578125 0.78125 -5.671875 C 0.882812 -5.773438 1.003906 -5.828125 1.140625 -5.828125 Z M 1.140625 -5.828125 "/></g></g></g><g fill="#fffbf8" fill-opacity="1"><g transform="translate(181.232412, 214.114217)"><g><path d="M 1.65625 -0.5 C 1.65625 -0.363281 1.601562 -0.242188 1.5 -0.140625 C 1.394531 -0.046875 1.273438 0 1.140625 0 C 0.984375 0 0.859375 -0.046875 0.765625 -0.140625 C 0.671875 -0.242188 0.625 -0.363281 0.625 -0.5 L 0.625 -5.3125 C 0.625 -5.457031 0.671875 -5.578125 0.765625 -5.671875 C 0.867188 -5.765625 1 -5.8125 1.15625 -5.8125 C 1.289062 -5.8125 1.40625 -5.765625 1.5 -5.671875 C 1.601562 -5.578125 1.65625 -5.457031 1.65625 -5.3125 Z M 1.65625 -0.5 "/></g></g></g><g fill="#fffbf8" fill-opacity="1"><g transform="translate(190.173546, 214.114217)"><g><path d="M 1.21875 0 C 1.0625 0 0.921875 -0.046875 0.796875 -0.140625 C 0.679688 -0.242188 0.625 -0.363281 0.625 -0.5 L 0.625 -5.3125 C 0.625 -5.457031 0.671875 -5.578125 0.765625 -5.671875 C 0.867188 -5.765625 0.988281 -5.8125 1.125 -5.8125 L 3.53125 -5.8125 C 3.8125 -5.8125 4.078125 -5.734375 4.328125 -5.578125 C 4.585938 -5.429688 4.789062 -5.222656 4.9375 -4.953125 C 5.09375 -4.691406 5.171875 -4.382812 5.171875 -4.03125 C 5.171875 -3.820312 5.128906 -3.613281 5.046875 -3.40625 C 4.960938 -3.207031 4.847656 -3.03125 4.703125 -2.875 C 4.554688 -2.71875 4.390625 -2.59375 4.203125 -2.5 L 4.21875 -2.6875 C 4.375 -2.601562 4.5 -2.503906 4.59375 -2.390625 C 4.695312 -2.285156 4.773438 -2.164062 4.828125 -2.03125 C 4.890625 -1.90625 4.929688 -1.765625 4.953125 -1.609375 C 4.972656 -1.472656 4.984375 -1.351562 4.984375 -1.25 C 4.992188 -1.144531 5.007812 -1.054688 5.03125 -0.984375 C 5.0625 -0.910156 5.113281 -0.851562 5.1875 -0.8125 C 5.3125 -0.738281 5.390625 -0.632812 5.421875 -0.5 C 5.453125 -0.363281 5.414062 -0.242188 5.3125 -0.140625 C 5.257812 -0.0664062 5.1875 -0.0195312 5.09375 0 C 5 0.0195312 4.898438 0.0195312 4.796875 0 C 4.703125 -0.0195312 4.628906 -0.046875 4.578125 -0.078125 C 4.484375 -0.140625 4.382812 -0.222656 4.28125 -0.328125 C 4.1875 -0.429688 4.109375 -0.570312 4.046875 -0.75 C 3.992188 -0.9375 3.96875 -1.175781 3.96875 -1.46875 C 3.96875 -1.5625 3.953125 -1.648438 3.921875 -1.734375 C 3.890625 -1.816406 3.84375 -1.882812 3.78125 -1.9375 C 3.71875 -2 3.640625 -2.046875 3.546875 -2.078125 C 3.453125 -2.109375 3.34375 -2.125 3.21875 -2.125 L 1.53125 -2.125 L 1.65625 -2.3125 L 1.65625 -0.5 C 1.65625 -0.363281 1.617188 -0.242188 1.546875 -0.140625 C 1.472656 -0.046875 1.363281 0 1.21875 0 Z M 1.546875 -2.96875 L 3.484375 -2.96875 C 3.578125 -2.96875 3.671875 -3.015625 3.765625 -3.109375 C 3.867188 -3.203125 3.945312 -3.328125 4 -3.484375 C 4.0625 -3.640625 4.09375 -3.8125 4.09375 -4 C 4.09375 -4.25 4.023438 -4.453125 3.890625 -4.609375 C 3.765625 -4.773438 3.628906 -4.859375 3.484375 -4.859375 L 1.5625 -4.859375 L 1.65625 -5.125 L 1.65625 -2.78125 Z M 1.546875 -2.96875 "/></g></g></g><g fill="#fffbf8" fill-opacity="1"><g transform="translate(202.541449, 214.114217)"><g><path d="M 1.65625 -0.5 C 1.65625 -0.363281 1.601562 -0.242188 1.5 -0.140625 C 1.394531 -0.046875 1.273438 0 1.140625 0 C 0.984375 0 0.859375 -0.046875 0.765625 -0.140625 C 0.671875 -0.242188 0.625 -0.363281 0.625 -0.5 L 0.625 -5.3125 C 0.625 -5.457031 0.671875 -5.578125 0.765625 -5.671875 C 0.867188 -5.765625 1 -5.8125 1.15625 -5.8125 C 1.289062 -5.8125 1.40625 -5.765625 1.5 -5.671875 C 1.601562 -5.578125 1.65625 -5.457031 1.65625 -5.3125 Z M 1.65625 -0.5 "/></g></g></g><g fill="#fffbf8" fill-opacity="1"><g transform="translate(211.482582, 214.114217)"><g><path d="M 5.03125 -5.8125 C 5.164062 -5.8125 5.273438 -5.765625 5.359375 -5.671875 C 5.441406 -5.585938 5.484375 -5.484375 5.484375 -5.359375 L 5.484375 -0.5 C 5.484375 -0.363281 5.429688 -0.242188 5.328125 -0.140625 C 5.234375 -0.046875 5.117188 0 4.984375 0 C 4.910156 0 4.832031 -0.0078125 4.75 -0.03125 C 4.675781 -0.0625 4.625 -0.0976562 4.59375 -0.140625 L 1.328125 -4.296875 L 1.53125 -4.421875 L 1.53125 -0.46875 C 1.53125 -0.332031 1.488281 -0.21875 1.40625 -0.125 C 1.320312 -0.0390625 1.210938 0 1.078125 0 C 0.941406 0 0.832031 -0.0390625 0.75 -0.125 C 0.664062 -0.21875 0.625 -0.332031 0.625 -0.46875 L 0.625 -5.3125 C 0.625 -5.457031 0.671875 -5.578125 0.765625 -5.671875 C 0.867188 -5.765625 0.988281 -5.8125 1.125 -5.8125 C 1.207031 -5.8125 1.289062 -5.796875 1.375 -5.765625 C 1.457031 -5.742188 1.515625 -5.703125 1.546875 -5.640625 L 4.71875 -1.59375 L 4.578125 -1.5 L 4.578125 -5.359375 C 4.578125 -5.484375 4.617188 -5.585938 4.703125 -5.671875 C 4.785156 -5.765625 4.894531 -5.8125 5.03125 -5.8125 Z M 5.03125 -5.8125 "/></g></g></g><g fill="#fffbf8" fill-opacity="1"><g transform="translate(224.249724, 214.114217)"><g><path d="M 1.15625 -5.8125 C 1.289062 -5.8125 1.40625 -5.765625 1.5 -5.671875 C 1.601562 -5.578125 1.65625 -5.457031 1.65625 -5.3125 L 1.65625 -0.5 C 1.65625 -0.363281 1.601562 -0.242188 1.5 -0.140625 C 1.394531 -0.046875 1.273438 0 1.140625 0 C 0.984375 0 0.859375 -0.046875 0.765625 -0.140625 C 0.671875 -0.242188 0.625 -0.363281 0.625 -0.5 L 0.625 -5.3125 C 0.625 -5.457031 0.671875 -5.578125 0.765625 -5.671875 C 0.867188 -5.765625 1 -5.8125 1.15625 -5.8125 Z M 4.84375 -5.8125 C 5 -5.8125 5.125 -5.765625 5.21875 -5.671875 C 5.3125 -5.578125 5.359375 -5.457031 5.359375 -5.3125 L 5.359375 -0.5 C 5.359375 -0.363281 5.304688 -0.242188 5.203125 -0.140625 C 5.109375 -0.046875 4.984375 0 4.828125 0 C 4.691406 0 4.570312 -0.046875 4.46875 -0.140625 C 4.363281 -0.242188 4.3125 -0.363281 4.3125 -0.5 L 4.3125 -5.3125 C 4.3125 -5.457031 4.363281 -5.578125 4.46875 -5.671875 C 4.570312 -5.765625 4.695312 -5.8125 4.84375 -5.8125 Z M 1.125 -3.40625 L 4.84375 -3.40625 L 4.84375 -2.4375 L 1.125 -2.4375 Z M 1.125 -3.40625 "/></g></g></g><g fill="#fffbf8" fill-opacity="1"><g transform="translate(236.883788, 214.114217)"><g><path d="M 2.765625 -4.515625 L 0.96875 -0.296875 C 0.925781 -0.191406 0.863281 -0.109375 0.78125 -0.046875 C 0.707031 0.015625 0.625 0.046875 0.53125 0.046875 C 0.375 0.046875 0.257812 0.00390625 0.1875 -0.078125 C 0.113281 -0.160156 0.078125 -0.265625 0.078125 -0.390625 C 0.078125 -0.441406 0.0859375 -0.492188 0.109375 -0.546875 L 2.171875 -5.515625 C 2.222656 -5.628906 2.289062 -5.71875 2.375 -5.78125 C 2.46875 -5.84375 2.566406 -5.867188 2.671875 -5.859375 C 2.773438 -5.859375 2.867188 -5.828125 2.953125 -5.765625 C 3.035156 -5.703125 3.097656 -5.617188 3.140625 -5.515625 L 5.1875 -0.640625 C 5.21875 -0.578125 5.234375 -0.515625 5.234375 -0.453125 C 5.234375 -0.296875 5.179688 -0.171875 5.078125 -0.078125 C 4.984375 0.00390625 4.878906 0.046875 4.765625 0.046875 C 4.660156 0.046875 4.566406 0.015625 4.484375 -0.046875 C 4.410156 -0.109375 4.351562 -0.191406 4.3125 -0.296875 L 2.515625 -4.46875 Z M 1.21875 -1.3125 L 1.671875 -2.265625 L 3.921875 -2.265625 L 4.078125 -1.3125 Z M 1.21875 -1.3125 "/></g></g></g></svg>