<?xml version="1.0" encoding="UTF-8"?>
<svg xmlns="http://www.w3.org/2000/svg" id="Layer_1" data-name="Layer 1" viewBox="0 0 24 24">
  <path d="M18.086,15.086c.579-.592,.567-1.542-.025-2.121-.591-.578-1.542-.567-2.121,.025l-.854,.875c-.197,.195-.514,.195-.709,0l-1.061-1.061,1.245-1.245c.586-.585,.586-1.535,0-2.121s-1.535-.586-2.121,0l-1.245,1.245-1.061-1.061c-.127-.127-.146-.276-.146-.353s.019-.226,.146-.354l1.001-1.001c.573-.572,.587-1.496,.034-2.086l-3.39-3.615c-1.479-1.534-3.87-1.611-5.491-.135-.832,.758-1.296,1.84-1.274,2.896l-.014,.483c-.023,.828,.629,1.519,1.457,1.542,.827,.036,1.519-.629,1.542-1.457l.014-.555c-.003-.155,.031-.451,.342-.734,.365-.333,.92-.316,1.25,.026l2.382,2.541c-.645,.658-1,1.526-1,2.449,0,.935,.364,1.814,1.025,2.475l1.061,1.061L.439,21.439c-.586,.586-.586,1.535,0,2.121,.293,.293,.677,.439,1.061,.439s.768-.146,1.061-.439L11.194,14.927l1.061,1.062c.681,.68,1.574,1.021,2.47,1.021s1.802-.345,2.492-1.034l.868-.889Z"/>
  <path d="M23.174,20.16c-.741-.374-1.643-.073-2.014,.666,0,.002-.169,.169-.541,.169h-.002c-.222,0-.368-.113-.436-.181-.068-.067-.182-.214-.182-.437,0-.165,.064-.321,.181-.438l2.25-2.249c1.962-1.963,2.051-5.117,.289-7.218l.841-.841c.586-.585,.586-1.536,0-2.121-.586-.586-1.535-.586-2.121,0l-.787,.787-1.396-1.432,.805-.805c.586-.586,.586-1.536,0-2.122s-1.535-.585-2.121,0l-.779,.778-1.396-1.432,.501-.501c.424-.263,.698-.74,.698-1.284,0-.829-.707-1.5-1.535-1.5-.397,0-.779,.158-1.061,.439l-1.772,1.772c-.581,.581-.586,1.52-.013,2.108l7.755,7.953c.886,.917,.872,2.396-.028,3.297l-2.251,2.25c-.683,.685-1.059,1.593-1.059,2.558s.377,1.877,1.062,2.561c.684,.682,1.591,1.057,2.552,1.057h.009c1.817,0,2.877-1.146,3.217-1.821,.372-.74,.074-1.643-.666-2.014Z"/>
</svg>
